#!OML:ASF G:\ViconDB\ViconDB\414\test\team2\shane.ASF
:FULLY-SPECIFIED
:DEGREES
424
root 5.54569 16.3335 34.3651 -11.5681 9.64634 -11.1196
lowerback 4.93855 -1.91931 6.63394
upperback 4.34928 -2.37636 6.61431
thorax 1.76466 -1.11353 3.22511
lowerneck -16.18 -0.491017 -4.62381
upperneck 16.7866 -0.699002 5.91815
head 7.88744 -0.0385411 2.6528
rclavicle -3.96575e-014 2.54444e-014
rhumerus -29.4056 0.229779 -84.9447
rradius 28.6091
rwrist 36.3931
rhand -30.0248 -15.6612
rfingers 7.12502
rthumb -3.34145 -45.6147
lclavicle -3.96575e-014 2.54444e-014
lhumerus -34.2578 -26.559 103.311
lradius 24.9766
lwrist -11.1755
lhand -40.7849 9.2357
lfingers 7.12502
lthumb -13.7244 38.7631
rfemur 0.720559 -15.3632 27.3809
rtibia 39.3799
rfoot -28.3002 2.44665
rtoes -9.14129
lfemur -3.05195 1.97866 4.77884
ltibia 70.1239
lfoot -20.5395 -9.67025
ltoes -9.43312
425
root 5.54242 16.3674 34.5051 -11.5373 9.56274 -11.0692
lowerback 4.99289 -1.66669 6.80313
upperback 4.35341 -2.02519 6.40256
thorax 1.72155 -0.930302 2.8975
lowerneck -16.3154 -0.624936 -4.52557
upperneck 16.9382 -0.934325 6.04931
head 7.97587 -0.128227 2.65706
rclavicle 2.77802e-014 4.69132e-014
rhumerus -28.712 0.604806 -85.539
rradius 28.8827
rwrist 35.6633
rhand -30.1108 -15.7003
rfingers 7.12502
rthumb -3.4245 -45.6525
lclavicle 2.77802e-014 4.69132e-014
lhumerus -34.9784 -26.5103 103.369
lradius 25.1257
lwrist -9.85208
lhand -40.5186 9.82791
lfingers 7.12502
lthumb -13.4677 39.3725
rfemur 1.86141 -15.3486 27.266
rtibia 38.1504
rfoot -28.0521 2.75004
rtoes -9.12242
lfemur -4.30541 2.35774 4.4337
ltibia 69.5432
lfoot -21.4121 -9.14787
ltoes -9.96717
426
root 5.53955 16.4065 34.6426 -11.5279 9.52736 -11.0382
lowerback 5.07073 -1.40205 6.97618
upperback 4.33151 -1.6529 6.21267
thorax 1.64394 -0.737921 2.5905
lowerneck -16.3444 -0.803808 -4.62304
upperneck 17.0103 -1.21151 6.31842
head 8.02359 -0.238139 2.73336
rclavicle -3.60297e-015 -6.04305e-014
rhumerus -28.0438 0.627995 -85.9166
rradius 29.0248
rwrist 35.6073
rhand -30.0217 -15.5304
rfingers 7.12502
rthumb -3.33845 -45.484
lclavicle -3.60297e-015 -6.04305e-014
lhumerus -35.813 -26.8354 103.635
lradius 25.503
lwrist -7.50345
lhand -39.7047 10.0369
lfingers 7.12502
lthumb -12.6831 39.6318
rfemur 3.04197 -15.2991 27.1959
rtibia 36.8014
rfoot -27.5701 3.2097
rtoes -8.24749
lfemur -5.55138 2.66414 4.04855
ltibia 68.7181
lfoot -21.6894 -8.73815
ltoes -8.44401
427
root 5.53639 16.4529 34.7837 -11.3934 9.5541 -10.8652
lowerback 5.00694 -1.12171 7.02627
upperback 4.29084 -1.27907 5.91395
thorax 1.62963 -0.545768 2.23448
lowerneck -16.3916 -1.02783 -4.72135
upperneck 17.0573 -1.57669 6.72186
head 8.07409 -0.375885 2.84455
rclavicle 4.45775e-014 -4.77083e-014
rhumerus -27.4574 0.403047 -86.3847
rradius 29.2218
rwrist 35.6686
rhand -30.0816 -15.5651
rfingers 7.12502
rthumb -3.3963 -45.5178
lclavicle 4.45775e-014 -4.77083e-014
lhumerus -35.9867 -25.224 102.692
lradius 24.6994
lwrist -9.7725
lhand -39.7103 9.42843
lfingers 7.12502
lthumb -12.6885 39.023
rfemur 4.14938 -15.1575 27.0143
rtibia 35.3812
rfoot -27.259 3.40945
rtoes -7.93112
lfemur -6.88316 3.01435 3.50364
ltibia 67.6315
lfoot -22.4516 -8.35613
ltoes -8.52142
428
root 5.54164 16.4946 34.921 -11.2802 9.51891 -10.4878
lowerback 4.9961 -0.788075 6.97336
upperback 4.28505 -0.835025 5.57655
thorax 1.62846 -0.320123 1.89454
lowerneck -16.4532 -1.29706 -4.89018
upperneck 17.0264 -1.98103 7.11769
head 8.10657 -0.537631 2.95904
rclavicle 5.08143e-015 7.95139e-016
rhumerus -26.9388 1.18198 -87.018
rradius 29.5592
rwrist 34.509
rhand -30.3549 -15.7828
rfingers 7.12502
rthumb -3.6602 -45.7312
lclavicle 5.08143e-015 7.95139e-016
lhumerus -36.6641 -25.4234 102.676
lradius 24.6156
lwrist -8.98466
lhand -39.4619 9.27905
lfingers 7.12502
lthumb -12.449 38.8883
rfemur 5.37754 -15.08 26.5381
rtibia 33.885
rfoot -26.756 3.5547
rtoes -8.57149
lfemur -7.90672 3.33314 2.55716
ltibia 66.2882
lfoot -23.1733 -7.41
ltoes -8.66719
429
root 5.54436 16.5456 35.0644 -11.0766 9.50688 -10.1052
lowerback 4.83232 -0.49265 6.75418
upperback 4.27647 -0.464811 5.27348
thorax 1.71366 -0.134464 1.68533
lowerneck -16.6107 -1.49468 -5.02472
upperneck 17.0909 -2.29088 7.48326
head 8.18322 -0.65264 3.07047
rclavicle 8.07563e-016 -5.88403e-014
rhumerus -26.3267 0.806452 -87.3925
rradius 29.6971
rwrist 35.0364
rhand -30.5902 -15.8775
rfingers 7.12502
rthumb -3.88738 -45.8218
lclavicle 8.07563e-016 -5.88403e-014
lhumerus -37.2084 -25.1951 102.431
lradius 24.2651
lwrist -8.99374
lhand -39.013 9.00897
lfingers 7.12502
lthumb -12.0162 38.644
rfemur 6.41356 -14.8441 26.1335
rtibia 32.6164
rfoot -26.3507 3.76158
rtoes -8.55959
lfemur -8.97389 3.7298 1.63256
ltibia 64.657
lfoot -24.06 -6.61243
ltoes -9.38648
430
root 5.54391 16.5926 35.2072 -10.9577 9.51079 -9.83233
lowerback 4.77826 -0.21888 6.61324
upperback 4.24875 -0.106478 4.9904
thorax 1.71952 0.0449868 1.45659
lowerneck -16.6609 -1.73177 -5.33576
upperneck 17.0992 -2.65445 8.05868
head 8.23302 -0.785641 3.27517
rclavicle 1.8897e-014 2.66371e-014
rhumerus -25.9398 2.00712 -88.117
rradius 30.1483
rwrist 33.6517
rhand -30.6937 -16.095
rfingers 7.12502
rthumb -3.98739 -46.0374
lclavicle 1.8897e-014 2.66371e-014
lhumerus -37.2084 -25.1951 102.431
lradius 24.2651
lwrist -8.99374
lhand -39.013 9.00897
lfingers 7.12502
lthumb -12.0162 38.644
rfemur 7.63523 -14.5442 25.8542
rtibia 31.0301
rfoot -25.7075 3.94938
rtoes -8.68395
lfemur -9.98546 4.07545 0.877869
ltibia 62.9802
lfoot -24.6602 -6.21421
ltoes -9.84043
431
root 5.53425 16.6918 35.3603 -8.75796 10.8384 -5.80224
lowerback 2.99672 0.0362416 2.19418
upperback 3.88788 0.0286403 3.79062
thorax 2.31855 0.0209688 2.67243
lowerneck -16.9003 -1.96659 -5.61636
upperneck 17.2628 -2.9857 8.44299
head 8.3662 -0.91477 3.41699
rclavicle 1.94188e-014 -2.74323e-014
rhumerus -25.5266 2.74448 -88.6586
rradius 30.6952
rwrist 32.5785
rhand -30.753 -16.216
rfingers 7.12502
rthumb -4.04457 -46.1573
lclavicle 1.94188e-014 -2.74323e-014
lhumerus -38.459 -25.1182 101.947
lradius 23.6983
lwrist -9.39921
lhand -37.3174 8.15742
lfingers 7.12502
lthumb -10.3808 37.8812
rfemur 7.30976 -14.5764 21.8217
rtibia 29.4753
rfoot -25.156 3.86139
rtoes -8.27774
lfemur -12.578 3.698 -4.59131
ltibia 61.0234
lfoot -24.9211 -5.23148
ltoes -9.83877
432
root 5.56347 16.6799 35.4906 -10.6339 9.31233 -9.32291
lowerback 4.62798 0.378876 6.69618
upperback 4.2043 0.683513 4.38499
thorax 1.78275 0.450714 0.758928
lowerneck -16.9875 -2.18899 -5.68611
upperneck 17.2482 -3.3294 8.72684
head 8.41099 -1.05054 3.48354
rclavicle 1.01629e-014 -1.31198e-014
rhumerus -25.1562 3.44201 -89.2185
rradius 31.1143
rwrist 32.346
rhand -30.9299 -16.4754
rfingers 7.12502
rthumb -4.21548 -46.4134
lclavicle 1.01629e-014 -1.31198e-014
lhumerus -39.1924 -25.3501 101.778
lradius 23.401
lwrist -9.63493
lhand -37.1182 8.09456
lfingers 7.12502
lthumb -10.1887 37.8278
rfemur 10.0701 -14.2244 25.2388
rtibia 27.6762
rfoot -24.5083 4.38391
rtoes -8.30068
lfemur -11.8506 4.89602 -0.620241
ltibia 59.2292
lfoot -25.8608 -5.90469
ltoes -9.97426
433
root 5.56737 16.7232 35.6383 -10.4703 9.20155 -8.89341
lowerback 4.70729 0.69888 6.41546
upperback 4.086 1.11888 4.06029
thorax 1.6291 0.660692 0.562452
lowerneck -17.1768 -2.42738 -5.97939
upperneck 17.51 -3.6852 9.17047
head 8.57698 -1.18441 3.64643
rclavicle 2.3146e-014 -6.75868e-015
rhumerus -24.9556 4.24842 -89.7531
rradius 31.6725
rwrist 31.6441
rhand -31.0516 -16.6406
rfingers 7.12502
rthumb -4.33299 -46.5763
lclavicle 2.3146e-014 -6.75868e-015
lhumerus -39.9271 -25.2363 101.495
lradius 23.4739
lwrist -9.06738
lhand -36.121 8.20708
lfingers 7.12502
lthumb -9.22657 37.9852
rfemur 11.417 -13.9861 24.8046
rtibia 25.8575
rfoot -23.8396 4.38239
rtoes -8.7575
lfemur -12.6325 5.233 -1.48214
ltibia 57.1362
lfoot -26.2756 -6.26579
ltoes -9.56982
434
root 5.58319 16.7636 35.7887 -10.3137 9.07307 -8.85233
lowerback 4.77979 0.945096 6.76134
upperback 3.87165 1.48054 3.73733
thorax 1.39868 0.843947 0.0213285
lowerneck -16.9861 -2.61663 -5.92684
upperneck 17.4617 -3.99971 9.32917
head 8.55621 -1.31743 3.65149
rclavicle -1.79776e-014 -4.96962e-014
rhumerus -24.8804 4.78305 -90.3769
rradius 32.1816
rwrist 31.2585
rhand -31.1979 -16.7682
rfingers 7.12502
rthumb -4.4742 -46.7009
lclavicle -1.79776e-014 -4.96962e-014
lhumerus -40.9584 -25.3397 101.284
lradius 23.4563
lwrist -8.99478
lhand -35.5707 8.1589
lfingers 7.12502
lthumb -8.69558 37.9598
rfemur 12.9246 -14.0864 24.6352
rtibia 23.5647
rfoot -22.9245 4.7013
rtoes -9.13788
lfemur -13.4594 5.54214 -1.96731
ltibia 55.0522
lfoot -26.9945 -6.64265
ltoes -9.84323
435
root 5.59076 16.7998 35.9408 -10.2222 9.15613 -8.72394
lowerback 4.98905 1.16944 6.90493
upperback 3.63749 1.82087 3.38475
thorax 1.07203 1.00823 -0.442798
lowerneck -16.8871 -2.82543 -5.87013
upperneck 17.5979 -4.34965 9.47707
head 8.61737 -1.46299 3.65116
rclavicle 2.53575e-014 4.8901e-014
rhumerus -24.8114 5.1325 -90.9251
rradius 32.6824
rwrist 31.2469
rhand -31.3559 -16.6699
rfingers 7.12502
rthumb -4.6268 -46.5994
lclavicle 2.53575e-014 4.8901e-014
lhumerus -42.004 -25.3962 100.911
lradius 23.4712
lwrist -9.22964
lhand -34.8863 7.86615
lfingers 7.12502
lthumb -8.03507 37.6934
rfemur 14.4155 -14.3969 24.327
rtibia 21.5089
rfoot -22.2183 4.9172
rtoes -9.5821
lfemur -14.2092 5.61445 -2.49955
ltibia 52.781
lfoot -27.5384 -7.51221
ltoes -9.53223
436
root 5.60623 16.8352 36.0894 -9.95531 9.02794 -8.52779
lowerback 5.17707 1.42901 7.19804
upperback 3.32433 2.21505 2.96897
thorax 0.694579 1.19724 -1.05986
lowerneck -16.8263 -2.98937 -5.95372
upperneck 17.7558 -4.63824 9.79626
head 8.69575 -1.57005 3.74196
rclavicle -8.84514e-015 -3.36443e-014
rhumerus -24.7574 5.93073 -91.5538
rradius 33.2035
rwrist 30.7812
rhand -31.4469 -16.5853
rfingers 7.12502
rthumb -4.71469 -46.5129
lclavicle -8.84514e-015 -3.36443e-014
lhumerus -42.9963 -25.133 100.369
lradius 23.4194
lwrist -9.72167
lhand -34.305 7.87157
lfingers 7.12502
lthumb -7.47401 37.7195
rfemur 15.8008 -14.6343 23.9042
rtibia 19.2802
rfoot -21.3593 5.43096
rtoes -9.69728
lfemur -15.0426 5.94143 -3.1403
ltibia 50.486
lfoot -28.0674 -8.32209
ltoes -9.62979
